# xmcd
# 
# Track frame offsets:
#     150
#     15251
#     33655
#     55719
# 
# Disc length: 1154
# 
# Revision: 0
# Processed by: cddbd v1.5.2PL0 Copyright (c) Steve Scherf et al.
# Submitted via: fre:ac v1.0.17
# 
DISCID=24048004
DTITLE=Elyah - Elyah
DYEAR=0
DGENRE=
TTITLE0=Lion
TTITLE1=Everlasting
TTITLE2=Help Us
TTITLE3=You Are
EXTD=
EXTT0=
EXTT1=
EXTT2=
EXTT3=
PLAYORDER=
